{
	"asset": {
		"generator": "Unity 2017.1.0f3",
		"extras": {
			"exporterVersion" : "2.2.0"
		},
		"version": "2.0"
	},
	"accessors": [
		{
			"bufferView": 2,
			"byteOffset": 0,
			"componentType": 5126,
			"count": 35072,
			"max": [ 1.27281, 0.9990715, 0.6991597 ],
			"min": [ -1.189753, -1.008917, -1.791341 ],
			"type": "VEC3"
		},
		{
			"bufferView": 2,
			"byteOffset": 420864,
			"componentType": 5126,
			"count": 35072,
			"max": [ 0.9999814, 1, 0.9998804 ],
			"min": [ -0.9999781, -0.9999756, -0.9999999 ],
			"type": "VEC3"
		},
		{
			"bufferView": 3,
			"byteOffset": 0,
			"componentType": 5126,
			"count": 35072,
			"max": [ 1, 1, 1, 1 ],
			"min": [ 1, 1, 1, 1 ],
			"type": "VEC4"
		},
		{
			"bufferView": 1,
			"byteOffset": 0,
			"componentType": 5126,
			"count": 35072,
			"max": [ 0.9980469, 0.9980469 ],
			"min": [ 0.001953106, 0.001953125 ],
			"type": "VEC2"
		},
		{
			"bufferView": 3,
			"byteOffset": 561152,
			"componentType": 5126,
			"count": 35072,
			"max": [ 0.9998626, 0.9999595, 0.9999756, 1 ],
			"min": [ -0.9999945, -0.9999604, -1, -1 ],
			"type": "VEC4"
		},
		{
			"bufferView": 0,
			"byteOffset": 0,
			"componentType": 5123,
			"count": 44529,
			"max": [ 9802 ],
			"min": [ 0 ],
			"type": "SCALAR"
		},
		{
			"bufferView": 0,
			"byteOffset": 89058,
			"componentType": 5123,
			"count": 75084,
			"max": [ 24638 ],
			"min": [ 9803 ],
			"type": "SCALAR"
		},
		{
			"bufferView": 0,
			"byteOffset": 239226,
			"componentType": 5123,
			"count": 54264,
			"max": [ 35062 ],
			"min": [ 24639 ],
			"type": "SCALAR"
		},
		{
			"bufferView": 0,
			"byteOffset": 347754,
			"componentType": 5123,
			"count": 24,
			"max": [ 35071 ],
			"min": [ 35063 ],
			"type": "SCALAR"
		}
	],
	"buffers": [
		{
			"byteLength": 2592410,
			"uri": "centurion.bin"
		}
	],
	"bufferViews": [
		{
			"buffer": 0,
			"byteLength": 347802,
			"target": 34963,
			"byteOffset": 2244608
		},
		{
			"buffer": 0,
			"byteLength": 280576,
			"target": 34962,
			"byteStride": 8,
			"byteOffset": 0
		},
		{
			"buffer": 0,
			"byteLength": 841728,
			"target": 34962,
			"byteStride": 12,
			"byteOffset": 280576
		},
		{
			"buffer": 0,
			"byteLength": 1122304,
			"target": 34962,
			"byteStride": 16,
			"byteOffset": 1122304
		}
	],
	"images": [
		{
			"uri": "Assets/Models/PBR/centurion/Materials/VerneBotLo_04_Skin_BaseColor.jpg"
		},
		{
			"uri": "Assets/Models/PBR/centurion/Materials/VerneBotLo_04_Skin_MetalGlossv3_converted_metalRoughness.jpg"
		},
		{
			"uri": "Assets/Models/PBR/centurion/Materials/VerneBotLo_04_Skin_Normal.jpg"
		},
		{
			"uri": "Assets/Models/PBR/centurion/Materials/Skin_ambient_occlusion.jpg"
		},
		{
			"uri": "Assets/Models/PBR/centurion/Materials/Bot_Pose_Body_DiffuseOpacity.jpg"
		},
		{
			"uri": "Assets/Models/PBR/centurion/Materials/VerneBotLo_04_Body_MetalRough_converted_metalRoughness.jpg"
		},
		{
			"uri": "Assets/Models/PBR/centurion/Materials/VerneBotLo_04_Body_Normal.jpg"
		},
		{
			"uri": "Assets/Models/PBR/centurion/Materials/VerneBotLo_04_Body_Emissive.jpg"
		},
		{
			"uri": "Assets/Models/PBR/centurion/Materials/Body_ambient_occlusion.jpg"
		},
		{
			"uri": "Assets/Models/PBR/centurion/Materials/Bot_Pose_Clothes_DiffuseOpacity.png"
		},
		{
			"uri": "Assets/Models/PBR/centurion/Materials/VerneBotLo_04_Clothes_MetalGlossv3_converted_metalRoughness.jpg"
		},
		{
			"uri": "Assets/Models/PBR/centurion/Materials/VerneBotLo_04_Clothes_Normal.jpg"
		},
		{
			"uri": "Assets/Models/PBR/centurion/Materials/Clothes_ambient_occlusion.jpg"
		},
		{
			"uri": "Assets/Models/PBR/centurion/Materials/Bot_Pose_Ground_AlbedoOpacity.png"
		},
		{
			"uri": "Assets/Models/PBR/centurion/Materials/Bot_Pose_Ground_MetalGloss_converted_metalRoughness.jpg"
		},
		{
			"uri": "Assets/Models/PBR/centurion/Materials/Bot_Pose_Ground_Normal.jpg"
		}
	],
	"materials": [
		{
			"pbrMetallicRoughness": {
				"baseColorTexture" : {
					"index" : 0,
					"texCoord" : 0
				},
				"baseColorFactor": [1, 1, 1, 1],
				"metallicRoughnessTexture" : {
					"index" : 1,
					"texCoord" : 0
				},
				"metallicFactor": 1,
				"roughnessFactor": 1
			},
			"normalTexture" : {
				"index" : 2,
				"texCoord" : 0,
				"scale" : 1
			},
			"emissiveFactor": [0, 0, 0],
			"occlusionTexture" : {
				"index" : 3,
				"texCoord" : 0,
				"strength" : 1
			},
			"doubleSided": false,
			"name": "Skin"
		},
		{
			"pbrMetallicRoughness": {
				"baseColorTexture" : {
					"index" : 4,
					"texCoord" : 0
				},
				"baseColorFactor": [1, 1, 1, 1],
				"metallicRoughnessTexture" : {
					"index" : 5,
					"texCoord" : 0
				},
				"metallicFactor": 1,
				"roughnessFactor": 1
			},
			"normalTexture" : {
				"index" : 6,
				"texCoord" : 0,
				"scale" : 1
			},
			"emissiveTexture" : {
				"index" : 7,
				"texCoord" : 0
			},
			"emissiveFactor": [1, 1, 1],
			"occlusionTexture" : {
				"index" : 8,
				"texCoord" : 0,
				"strength" : 1
			},
			"doubleSided": false,
			"name": "Body"
		},
		{
			"pbrMetallicRoughness": {
				"baseColorTexture" : {
					"index" : 9,
					"texCoord" : 0
				},
				"baseColorFactor": [1, 1, 1, 1],
				"metallicRoughnessTexture" : {
					"index" : 10,
					"texCoord" : 0
				},
				"metallicFactor": 1,
				"roughnessFactor": 1
			},
			"alphaMode": "MASK",
			"alphaCutoff": 0,
			"normalTexture" : {
				"index" : 11,
				"texCoord" : 0,
				"scale" : 0
			},
			"emissiveFactor": [0, 0, 0],
			"occlusionTexture" : {
				"index" : 12,
				"texCoord" : 0,
				"strength" : 1
			},
			"doubleSided": false,
			"name": "Clothes"
		},
		{
			"pbrMetallicRoughness": {
				"baseColorTexture" : {
					"index" : 13,
					"texCoord" : 0
				},
				"baseColorFactor": [1, 1, 1, 1],
				"metallicRoughnessTexture" : {
					"index" : 14,
					"texCoord" : 0
				},
				"metallicFactor": 1,
				"roughnessFactor": 1
			},
			"alphaMode": "BLEND",
			"alphaCutoff": 0.5,
			"normalTexture" : {
				"index" : 15,
				"texCoord" : 0,
				"scale" : 1
			},
			"emissiveFactor": [0, 0, 0],
			"doubleSided": false,
			"name": "Ground"
		}
	],
	"meshes": [
		{
			"name": "mesh_BotExport_12288BotExport",
			"primitives": [
				{
					"attributes": {
						"POSITION": 0,
						"NORMAL": 1,
						"COLOR_0": 2,
						"TEXCOORD_0": 3,
						"TANGENT": 4
					},
					"indices": 5,
					"material": 0,
					"mode": 4
				},
				{
					"attributes": {
						"POSITION": 0,
						"NORMAL": 1,
						"COLOR_0": 2,
						"TEXCOORD_0": 3,
						"TANGENT": 4
					},
					"indices": 6,
					"material": 1,
					"mode": 4
				},
				{
					"attributes": {
						"POSITION": 0,
						"NORMAL": 1,
						"COLOR_0": 2,
						"TEXCOORD_0": 3,
						"TANGENT": 4
					},
					"indices": 7,
					"material": 2,
					"mode": 4
				},
				{
					"attributes": {
						"POSITION": 0,
						"NORMAL": 1,
						"COLOR_0": 2,
						"TEXCOORD_0": 3,
						"TANGENT": 4
					},
					"indices": 8,
					"material": 3,
					"mode": 4
				}
			]
		}
	],
	"nodes": [
		{
			"name": "UnityGlTF_root",
			"children": [
				1
			]
		},
		{
			"name": "node_centurion_-6468",
			"children": [
				2,
				3
			],
			"matrix": [1, 0, 0, 0, 0, 1, 0, 0, 0, 0, 1, 0, 0, 0, 0, 1]
		},
		{
			"name": "node_BotExport_-6472",
			"mesh": 0
		},
		{
			"name": "node_group_-6474",
			"children": [
				4,
				5
			],
			"translation": [ 0.04152858, -0.004922777, -0.5460908]
		},
		{
			"name": "node_BotExport 1_-6476",
			"children": [
				6
			],
			"translation": [ -0.04152858, 0.004922777, 0.5460908]
		},
		{
			"name": "node_PM3D_Plane3D_1_-6478",
			"children": [
				7
			],
			"translation": [ -0.04152858, 0.004922777, 0.5460908]
		},
		{
			"name": "node_transform2_-6482"
		},
		{
			"name": "node_transform1_-6490"
		}
	],
	"samplers": [
		{
			"magFilter": 9729,
			"minFilter": 9985,
			"wrapS": 10497,
			"wrapT": 10497
		}
	],
	"scenes": [
		{
			"name":"defaultScene",
			"nodes": [
				0
			]
		}
	],
	"scene": 0,
	"textures": [
		{
			"sampler": 0,
			"source": 0
		},
		{
			"sampler": 0,
			"source": 1
		},
		{
			"sampler": 0,
			"source": 2
		},
		{
			"sampler": 0,
			"source": 3
		},
		{
			"sampler": 0,
			"source": 4
		},
		{
			"sampler": 0,
			"source": 5
		},
		{
			"sampler": 0,
			"source": 6
		},
		{
			"sampler": 0,
			"source": 7
		},
		{
			"sampler": 0,
			"source": 8
		},
		{
			"sampler": 0,
			"source": 9
		},
		{
			"sampler": 0,
			"source": 10
		},
		{
			"sampler": 0,
			"source": 11
		},
		{
			"sampler": 0,
			"source": 12
		},
		{
			"sampler": 0,
			"source": 13
		},
		{
			"sampler": 0,
			"source": 14
		},
		{
			"sampler": 0,
			"source": 15
		}
	]
}