{
  "accessors": [
    {
      "bufferView": 2,
      "componentType": 5126,
      "count": 65532,
      "max": [
        16.016107559204102,
        13.875768661499023,
        2.920137882232666
      ],
      "min": [
        -44.074619293212891,
        -37.732372283935547,
        -40.803783416748047
      ],
      "type": "VEC3"
    },
    {
      "bufferView": 2,
      "byteOffset": 786384,
      "componentType": 5126,
      "count": 65532,
      "max": [
        0.99994325637817383,
        0.99794811010360718,
        0.99986273050308228
      ],
      "min": [
        -0.99718773365020752,
        -0.99990814924240112,
        -0.9944186806678772
      ],
      "type": "VEC3"
    },
    {
      "bufferView": 3,
      "componentType": 5126,
      "count": 65532,
      "max": [
        0.99998360872268677,
        0.99890041351318359,
        0.9988628625869751,
        1
      ],
      "min": [
        -0.99994957447052002,
        -0.99943208694458008,
        -0.99784302711486816,
        -1
      ],
      "type": "VEC4"
    },
    {
      "bufferView": 1,
      "componentType": 5126,
      "count": 65532,
      "max": [
        0.99759697914123535,
        1.0122339725494385
      ],
      "min": [
        0.0012290000449866056,
        0.0037370000500231981
      ],
      "type": "VEC2"
    },
    {
      "bufferView": 0,
      "componentType": 5125,
      "count": 323919,
      "max": [
        65531
      ],
      "min": [
        0
      ],
      "type": "SCALAR"
    },
    {
      "bufferView": 2,
      "byteOffset": 1572768,
      "componentType": 5126,
      "count": 65532,
      "max": [
        15.250725746154785,
        13.729843139648438,
        3.5846381187438965
      ],
      "min": [
        -44.054252624511719,
        -36.840599060058594,
        -39.508319854736328
      ],
      "type": "VEC3"
    },
    {
      "bufferView": 2,
      "byteOffset": 2359152,
      "componentType": 5126,
      "count": 65532,
      "max": [
        0.99995929002761841,
        0.98848181962966919,
        0.99968355894088745
      ],
      "min": [
        -0.99961405992507935,
        -0.9996914267539978,
        -0.99647766351699829
      ],
      "type": "VEC3"
    },
    {
      "bufferView": 3,
      "byteOffset": 1048512,
      "componentType": 5126,
      "count": 65532,
      "max": [
        0.9999660849571228,
        0.99945664405822754,
        0.99784165620803833,
        1
      ],
      "min": [
        -0.99994963407516479,
        -0.999522864818573,
        -0.99587780237197876,
        -1
      ],
      "type": "VEC4"
    },
    {
      "bufferView": 1,
      "byteOffset": 524256,
      "componentType": 5126,
      "count": 65532,
      "max": [
        0.99764299392700195,
        0.99982798099517822
      ],
      "min": [
        0.00016999999934341758,
        0.0029670000076293945
      ],
      "type": "VEC2"
    },
    {
      "bufferView": 0,
      "byteOffset": 1295676,
      "componentType": 5125,
      "count": 324684,
      "max": [
        65531
      ],
      "min": [
        0
      ],
      "type": "SCALAR"
    },
    {
      "bufferView": 2,
      "byteOffset": 3145536,
      "componentType": 5126,
      "count": 65532,
      "max": [
        14.628849983215332,
        13.706986427307129,
        3.7176458835601807
      ],
      "min": [
        -41.7069091796875,
        -36.957798004150391,
        -39.486110687255859
      ],
      "type": "VEC3"
    },
    {
      "bufferView": 2,
      "byteOffset": 3931920,
      "componentType": 5126,
      "count": 65532,
      "max": [
        0.99997353553771973,
        0.99819296598434448,
        0.9999879002571106
      ],
      "min": [
        -0.99999809265136719,
        -0.99952137470245361,
        -0.99982982873916626
      ],
      "type": "VEC3"
    },
    {
      "bufferView": 3,
      "byteOffset": 2097024,
      "componentType": 5126,
      "count": 65532,
      "max": [
        0.99997985363006592,
        0.99803608655929565,
        0.99994683265686035,
        1
      ],
      "min": [
        -0.99999779462814331,
        -0.99949783086776733,
        -0.99996614456176758,
        -1
      ],
      "type": "VEC4"
    },
    {
      "bufferView": 1,
      "byteOffset": 1048512,
      "componentType": 5126,
      "count": 65532,
      "max": [
        0.99804902076721191,
        1.0001289844512939
      ],
      "min": [
        0.00016999999934341758,
        0.0040580001659691334
      ],
      "type": "VEC2"
    },
    {
      "bufferView": 0,
      "byteOffset": 2594412,
      "componentType": 5125,
      "count": 305250,
      "max": [
        65531
      ],
      "min": [
        0
      ],
      "type": "SCALAR"
    },
    {
      "bufferView": 2,
      "byteOffset": 4718304,
      "componentType": 5126,
      "count": 65532,
      "max": [
        13.659852981567383,
        10.035813331604004,
        -0.011636000126600266
      ],
      "min": [
        -39.866683959960938,
        -37.296142578125,
        -39.259513854980469
      ],
      "type": "VEC3"
    },
    {
      "bufferView": 2,
      "byteOffset": 5504688,
      "componentType": 5126,
      "count": 65532,
      "max": [
        0.99995458126068115,
        0.99915063381195068,
        0.99992078542709351
      ],
      "min": [
        -0.9999653697013855,
        -0.99993431568145752,
        -0.99840128421783447
      ],
      "type": "VEC3"
    },
    {
      "bufferView": 3,
      "byteOffset": 3145536,
      "componentType": 5126,
      "count": 65532,
      "max": [
        0.99995547533035278,
        0.99971604347229004,
        0.99997478723526001,
        1
      ],
      "min": [
        -0.99988991022109985,
        -0.99959224462509155,
        -0.99971133470535278,
        -1
      ],
      "type": "VEC4"
    },
    {
      "bufferView": 1,
      "byteOffset": 1572768,
      "componentType": 5126,
      "count": 65532,
      "max": [
        0.99927800893783569,
        0.99991297721862793
      ],
      "min": [
        0.00076199998147785664,
        0.0038809999823570251
      ],
      "type": "VEC2"
    },
    {
      "bufferView": 0,
      "byteOffset": 3815412,
      "componentType": 5125,
      "count": 293685,
      "max": [
        65531
      ],
      "min": [
        0
      ],
      "type": "SCALAR"
    },
    {
      "bufferView": 2,
      "byteOffset": 6291072,
      "componentType": 5126,
      "count": 65532,
      "max": [
        11.145852088928223,
        9.6188793182373047,
        -0.14174200594425201
      ],
      "min": [
        -39.571487426757812,
        -37.200233459472656,
        -39.206012725830078
      ],
      "type": "VEC3"
    },
    {
      "bufferView": 2,
      "byteOffset": 7077456,
      "componentType": 5126,
      "count": 65532,
      "max": [
        0.99970561265945435,
        0.99988055229187012,
        0.9999879002571106
      ],
      "min": [
        -0.99991166591644287,
        -0.99993753433227539,
        -0.99960601329803467
      ],
      "type": "VEC3"
    },
    {
      "bufferView": 3,
      "byteOffset": 4194048,
      "componentType": 5126,
      "count": 65532,
      "max": [
        0.99961704015731812,
        0.99988186359405518,
        0.99995863437652588,
        1
      ],
      "min": [
        -0.99996006488800049,
        -0.9997139573097229,
        -0.99990826845169067,
        -1
      ],
      "type": "VEC4"
    },
    {
      "bufferView": 1,
      "byteOffset": 2097024,
      "componentType": 5126,
      "count": 65532,
      "max": [
        0.99844402074813843,
        0.99959897994995117
      ],
      "min": [
        0.00098899996373802423,
        0.0040079997852444649
      ],
      "type": "VEC2"
    },
    {
      "bufferView": 0,
      "byteOffset": 4990152,
      "componentType": 5125,
      "count": 288897,
      "max": [
        65531
      ],
      "min": [
        0
      ],
      "type": "SCALAR"
    },
    {
      "bufferView": 2,
      "byteOffset": 7863840,
      "componentType": 5126,
      "count": 65532,
      "max": [
        10.565388679504395,
        9.3333797454833984,
        0.39043000340461731
      ],
      "min": [
        -39.196918487548828,
        -37.217658996582031,
        -39.000919342041016
      ],
      "type": "VEC3"
    },
    {
      "bufferView": 2,
      "byteOffset": 8650224,
      "componentType": 5126,
      "count": 65532,
      "max": [
        0.99999022483825684,
        0.99998760223388672,
        0.99996387958526611
      ],
      "min": [
        -0.99999445676803589,
        -0.99986445903778076,
        -0.9991607666015625
      ],
      "type": "VEC3"
    },
    {
      "bufferView": 3,
      "byteOffset": 5242560,
      "componentType": 5126,
      "count": 65532,
      "max": [
        0.99980777502059937,
        0.99996471405029297,
        0.99999320507049561,
        1
      ],
      "min": [
        -0.99976938962936401,
        -0.99969583749771118,
        -0.99996238946914673,
        -1
      ],
      "type": "VEC4"
    },
    {
      "bufferView": 1,
      "byteOffset": 2621280,
      "componentType": 5126,
      "count": 65532,
      "max": [
        0.99799400568008423,
        0.99985700845718384
      ],
      "min": [
        0.00044699999853037298,
        0.0044220001436769962
      ],
      "type": "VEC2"
    },
    {
      "bufferView": 0,
      "byteOffset": 6145740,
      "componentType": 5125,
      "count": 302640,
      "max": [
        65531
      ],
      "min": [
        0
      ],
      "type": "SCALAR"
    },
    {
      "bufferView": 2,
      "byteOffset": 9436608,
      "componentType": 5126,
      "count": 65534,
      "max": [
        10.525115013122559,
        9.0546407699584961,
        0.25974899530410767
      ],
      "min": [
        -39.191520690917969,
        -37.398345947265625,
        -38.748825073242188
      ],
      "type": "VEC3"
    },
    {
      "bufferView": 2,
      "byteOffset": 10223016,
      "componentType": 5126,
      "count": 65534,
      "max": [
        0.99999332427978516,
        0.99899989366531372,
        0.99996733665466309
      ],
      "min": [
        -0.99987208843231201,
        -0.99986445903778076,
        -0.99981468915939331
      ],
      "type": "VEC3"
    },
    {
      "bufferView": 3,
      "byteOffset": 6291072,
      "componentType": 5126,
      "count": 65534,
      "max": [
        0.99999779462814331,
        0.99996960163116455,
        0.99999487400054932,
        1
      ],
      "min": [
        -0.99984824657440186,
        -0.99990123510360718,
        -0.99999481439590454,
        -1
      ],
      "type": "VEC4"
    },
    {
      "bufferView": 1,
      "byteOffset": 3145536,
      "componentType": 5126,
      "count": 65534,
      "max": [
        0.99970901012420654,
        0.99972301721572876
      ],
      "min": [
        0.00072100001852959394,
        0.023482000455260277
      ],
      "type": "VEC2"
    },
    {
      "bufferView": 0,
      "byteOffset": 7356300,
      "componentType": 5125,
      "count": 285315,
      "max": [
        65533
      ],
      "min": [
        0
      ],
      "type": "SCALAR"
    },
    {
      "bufferView": 2,
      "byteOffset": 11009424,
      "componentType": 5126,
      "count": 65532,
      "max": [
        10.44807243347168,
        8.7474241256713867,
        0.34932801127433777
      ],
      "min": [
        -39.200294494628906,
        -37.505653381347656,
        -38.287178039550781
      ],
      "type": "VEC3"
    },
    {
      "bufferView": 2,
      "byteOffset": 11795808,
      "componentType": 5126,
      "count": 65532,
      "max": [
        0.99999523162841797,
        0.99978327751159668,
        0.99999278783798218
      ],
      "min": [
        -0.99996012449264526,
        -0.99999260902404785,
        -0.99931079149246216
      ],
      "type": "VEC3"
    },
    {
      "bufferView": 3,
      "byteOffset": 7339616,
      "componentType": 5126,
      "count": 65532,
      "max": [
        0.99995839595794678,
        0.99998050928115845,
        0.99999487400054932,
        1
      ],
      "min": [
        -0.99998092651367188,
        -0.99953138828277588,
        -0.99985039234161377,
        -1
      ],
      "type": "VEC4"
    },
    {
      "bufferView": 1,
      "byteOffset": 3669808,
      "componentType": 5126,
      "count": 65532,
      "max": [
        0.99826198816299438,
        0.99980700016021729
      ],
      "min": [
        0.00030499999411404133,
        0.18308299779891968
      ],
      "type": "VEC2"
    },
    {
      "bufferView": 0,
      "byteOffset": 8497560,
      "componentType": 5125,
      "count": 265890,
      "max": [
        65531
      ],
      "min": [
        0
      ],
      "type": "SCALAR"
    },
    {
      "bufferView": 2,
      "byteOffset": 12582192,
      "componentType": 5126,
      "count": 65532,
      "max": [
        10.009018898010254,
        8.0885419845581055,
        0.64003002643585205
      ],
      "min": [
        -39.141075134277344,
        -37.749935150146484,
        -38.004981994628906
      ],
      "type": "VEC3"
    },
    {
      "bufferView": 2,
      "byteOffset": 13368576,
      "componentType": 5126,
      "count": 65532,
      "max": [
        0.99999332427978516,
        0.99988055229187012,
        0.99999278783798218
      ],
      "min": [
        -0.99999445676803589,
        -0.99994140863418579,
        -0.9938122034072876
      ],
      "type": "VEC3"
    },
    {
      "bufferView": 3,
      "byteOffset": 8388128,
      "componentType": 5126,
      "count": 65532,
      "max": [
        0.99992167949676514,
        0.99972450733184814,
        0.99992209672927856,
        1
      ],
      "min": [
        -0.9999089241027832,
        -0.99985921382904053,
        -0.99985039234161377,
        -1
      ],
      "type": "VEC4"
    },
    {
      "bufferView": 1,
      "byteOffset": 4194064,
      "componentType": 5126,
      "count": 65532,
      "max": [
        0.99857598543167114,
        0.99909698963165283
      ],
      "min": [
        0.00084100000094622374,
        0.0068609998561441898
      ],
      "type": "VEC2"
    },
    {
      "bufferView": 0,
      "byteOffset": 9561120,
      "componentType": 5125,
      "count": 296166,
      "max": [
        65531
      ],
      "min": [
        0
      ],
      "type": "SCALAR"
    },
    {
      "bufferView": 2,
      "byteOffset": 14154960,
      "componentType": 5126,
      "count": 65532,
      "max": [
        9.6587409973144531,
        7.6032299995422363,
        0.71646797657012939
      ],
      "min": [
        -39.039936065673828,
        -37.8267822265625,
        -37.510795593261719
      ],
      "type": "VEC3"
    },
    {
      "bufferView": 2,
      "byteOffset": 14941344,
      "componentType": 5126,
      "count": 65532,
      "max": [
        0.99994224309921265,
        0.99984896183013916,
        0.99998921155929565
      ],
      "min": [
        -0.99995172023773193,
        -0.99999529123306274,
        -0.99958807229995728
      ],
      "type": "VEC3"
    },
    {
      "bufferView": 3,
      "byteOffset": 9436640,
      "componentType": 5126,
      "count": 65532,
      "max": [
        0.99998122453689575,
        0.9999803900718689,
        0.99984973669052124,
        1
      ],
      "min": [
        -0.99996119737625122,
        -0.99992400407791138,
        -0.99987936019897461,
        -1
      ],
      "type": "VEC4"
    },
    {
      "bufferView": 1,
      "byteOffset": 4718320,
      "componentType": 5126,
      "count": 65532,
      "max": [
        0.99840199947357178,
        0.99884098768234253
      ],
      "min": [
        0.00071599998045712709,
        0.0028989999555051327
      ],
      "type": "VEC2"
    },
    {
      "bufferView": 0,
      "byteOffset": 10745784,
      "componentType": 5125,
      "count": 310269,
      "max": [
        65531
      ],
      "min": [
        0
      ],
      "type": "SCALAR"
    },
    {
      "bufferView": 2,
      "byteOffset": 15727728,
      "componentType": 5126,
      "count": 1150,
      "max": [
        8.55169677734375,
        5.5049571990966797,
        0.63976001739501953
      ],
      "min": [
        -37.1580810546875,
        -32.741771697998047,
        -30.576187133789062
      ],
      "type": "VEC3"
    },
    {
      "bufferView": 2,
      "byteOffset": 15741528,
      "componentType": 5126,
      "count": 1150,
      "max": [
        0.99916702508926392,
        0.71312761306762695,
        0.99959152936935425
      ],
      "min": [
        -0.98971980810165405,
        -0.99990159273147583,
        -0.69391739368438721
      ],
      "type": "VEC3"
    },
    {
      "bufferView": 3,
      "byteOffset": 10485152,
      "componentType": 5126,
      "count": 1150,
      "max": [
        0.99470865726470947,
        0.98052215576171875,
        0.99070262908935547,
        1
      ],
      "min": [
        -0.98620617389678955,
        -0.99860537052154541,
        -0.9995579719543457,
        -1
      ],
      "type": "VEC4"
    },
    {
      "bufferView": 1,
      "byteOffset": 5242576,
      "componentType": 5126,
      "count": 1150,
      "max": [
        0.99759602546691895,
        0.98603099584579468
      ],
      "min": [
        0.0021510000806301832,
        0.17551000416278839
      ],
      "type": "VEC2"
    },
    {
      "bufferView": 0,
      "byteOffset": 11986860,
      "componentType": 5125,
      "count": 3282,
      "max": [
        1149
      ],
      "min": [
        0
      ],
      "type": "SCALAR"
    }
  ],
  "asset": {
    "generator": "Sketchfab (OSG glTF plugin)",
    "version": "2.0"
  },
  "bufferViews": [
    {
      "buffer": 0,
      "byteLength": 11999988,
      "byteOffset": 0,
      "name": "floatBufferViews",
      "target": 34963
    },
    {
      "buffer": 0,
      "byteLength": 5251776,
      "byteOffset": 11999988,
      "byteStride": 8,
      "name": "floatBufferViews",
      "target": 34962
    },
    {
      "buffer": 0,
      "byteLength": 15755328,
      "byteOffset": 17251764,
      "byteStride": 12,
      "name": "floatBufferViews",
      "target": 34962
    },
    {
      "buffer": 0,
      "byteLength": 10503552,
      "byteOffset": 33007092,
      "byteStride": 16,
      "name": "floatBufferViews",
      "target": 34962
    }
  ],
  "buffers": [
    {
      "byteLength": 43510644,
      "uri": "wall.bin"
    }
  ],
  "extensionsRequired": [
    "KHR_materials_pbrSpecularGlossiness"
  ],
  "extensionsUsed": [
    "KHR_materials_pbrSpecularGlossiness"
  ],
  "images": [
    {
      "uri": "textures/20170716-longmur4k_diffuse.jpeg"
    }
  ],
  "materials": [
    {
      "doubleSided": true,
      "emissiveFactor": [
        0,
        0,
        0
      ],
      "extensions": {
        "KHR_materials_pbrSpecularGlossiness": {
          "diffuseFactor": [
            1,
            1,
            1,
            1
          ],
          "diffuseTexture": {
            "index": 0,
            "texCoord": 0
          },
          "glossinessFactor": 0,
          "specularFactor": [
            0,
            0,
            0
          ]
        }
      },
      "name": "20170716-longmur4k",
      "occlusionFactor": 1
    }
  ],
  "meshes": [
    {
      "primitives": [
        {
          "attributes": {
            "NORMAL": 1,
            "POSITION": 0,
            "TANGENT": 2,
            "TEXCOORD_0": 3
          },
          "indices": 4,
          "material": 0,
          "mode": 4
        }
      ]
    },
    {
      "primitives": [
        {
          "attributes": {
            "NORMAL": 6,
            "POSITION": 5,
            "TANGENT": 7,
            "TEXCOORD_0": 8
          },
          "indices": 9,
          "material": 0,
          "mode": 4
        }
      ]
    },
    {
      "primitives": [
        {
          "attributes": {
            "NORMAL": 11,
            "POSITION": 10,
            "TANGENT": 12,
            "TEXCOORD_0": 13
          },
          "indices": 14,
          "material": 0,
          "mode": 4
        }
      ]
    },
    {
      "primitives": [
        {
          "attributes": {
            "NORMAL": 16,
            "POSITION": 15,
            "TANGENT": 17,
            "TEXCOORD_0": 18
          },
          "indices": 19,
          "material": 0,
          "mode": 4
        }
      ]
    },
    {
      "primitives": [
        {
          "attributes": {
            "NORMAL": 21,
            "POSITION": 20,
            "TANGENT": 22,
            "TEXCOORD_0": 23
          },
          "indices": 24,
          "material": 0,
          "mode": 4
        }
      ]
    },
    {
      "primitives": [
        {
          "attributes": {
            "NORMAL": 26,
            "POSITION": 25,
            "TANGENT": 27,
            "TEXCOORD_0": 28
          },
          "indices": 29,
          "material": 0,
          "mode": 4
        }
      ]
    },
    {
      "primitives": [
        {
          "attributes": {
            "NORMAL": 31,
            "POSITION": 30,
            "TANGENT": 32,
            "TEXCOORD_0": 33
          },
          "indices": 34,
          "material": 0,
          "mode": 4
        }
      ]
    },
    {
      "primitives": [
        {
          "attributes": {
            "NORMAL": 36,
            "POSITION": 35,
            "TANGENT": 37,
            "TEXCOORD_0": 38
          },
          "indices": 39,
          "material": 0,
          "mode": 4
        }
      ]
    },
    {
      "primitives": [
        {
          "attributes": {
            "NORMAL": 41,
            "POSITION": 40,
            "TANGENT": 42,
            "TEXCOORD_0": 43
          },
          "indices": 44,
          "material": 0,
          "mode": 4
        }
      ]
    },
    {
      "primitives": [
        {
          "attributes": {
            "NORMAL": 46,
            "POSITION": 45,
            "TANGENT": 47,
            "TEXCOORD_0": 48
          },
          "indices": 49,
          "material": 0,
          "mode": 4
        }
      ]
    },
    {
      "primitives": [
        {
          "attributes": {
            "NORMAL": 51,
            "POSITION": 50,
            "TANGENT": 52,
            "TEXCOORD_0": 53
          },
          "indices": 54,
          "material": 0,
          "mode": 4
        }
      ]
    }
  ],
  "nodes": [
    {
      "children": [
        1
      ],
      "name": "RootNode (gltf orientation matrix)",
      "rotation": [
        -0.70710678118654746,
        -0,
        -0,
        0.70710678118654757
      ]
    },
    {
      "children": [
        2
      ],
      "matrix": [
        0.99753892421722412,
        -0.00083929172251373529,
        0.070109464228153229,
        0,
        0.048760101199150085,
        0.72684121131896973,
        -0.68507254123687744,
        0,
        -0.050383470952510834,
        0.68680506944656372,
        0.7250933051109314,
        0,
        -0.38486352562904358,
        9.4524822235107422,
        -12.318127632141113,
        1
      ],
      "name": "RootNode (model correction matrix)"
    },
    {
      "children": [
        3
      ],
      "name": "20170716-longmur4k.obj.cleaner.materialmerger.gles"
    },
    {
      "children": [
        4,
        5,
        6,
        7,
        8,
        9,
        10,
        11,
        12,
        13,
        14
      ],
      "name": "Geode"
    },
    {
      "mesh": 0,
      "name": ""
    },
    {
      "mesh": 1,
      "name": ""
    },
    {
      "mesh": 2,
      "name": ""
    },
    {
      "mesh": 3,
      "name": ""
    },
    {
      "mesh": 4,
      "name": ""
    },
    {
      "mesh": 5,
      "name": ""
    },
    {
      "mesh": 6,
      "name": ""
    },
    {
      "mesh": 7,
      "name": ""
    },
    {
      "mesh": 8,
      "name": ""
    },
    {
      "mesh": 9,
      "name": ""
    },
    {
      "mesh": 10,
      "name": ""
    }
  ],
  "samplers": [
    {
      "magFilter": 9729,
      "minFilter": 9987,
      "wrapS": 10497,
      "wrapT": 10497
    }
  ],
  "scene": 0,
  "scenes": [
    {
      "name": "OSG_Scene",
      "nodes": [
        0
      ]
    }
  ],
  "textures": [
    {
      "sampler": 0,
      "source": 0
    }
  ]
}

